# xmcd
#
# Track frame offsets:
#	150
#	16165
#	36042
#	52083
#	64365
#	77251
#	94491
#	112482
#	125763
#	142138
#	161230
#	182666
#	200193
#	220706
#	232762
#	246548
#	265558
#	284316
#	297055
#	309533
#	327367
#
# Disc length: 4591
#
# Revision: 1
# Processed by: cddbd v1.5.1PL0 Copyright (c) Steve Scherf et al.
# Submitted via: audiograbber 1.80
# Normalized: r0:TDELIM( - )
#
DISCID=4711ed15
DTITLE=Various Artist - Heartbeats CD1
DYEAR=1900
DGENRE=
TTITLE0=James Ingram, Patti Austin - Baby, Come To Me
TTITLE1=Diana Ross, Lionel Richie - Endless Love
TTITLE2=Linda Ronstadt, Aaron Neville - Don't Know Much
TTITLE3=Aretha Franklin - [you Make Me Feel Like] A Natural Woman
TTITLE4=Stevie Wonder - My Cherie Amour
TTITLE5=Teddy Pendergrass - In My Time
TTITLE6=Kool and The Gang - Joanna
TTITLE7=Ben E King - Stand By Me
TTITLE8=Vanessa Williams - Saved The Best For Last
TTITLE9=Michael Jackson - One Day In Your Life
TTITLE10=Chaka Khan - Through The Fire
TTITLE11=Smokey Robinson - Being With You
TTITLE12=Atlantic Starr - Always
TTITLE13=Otis Redding - [sittin'] On The Dock Of The Bay
TTITLE14=Dionne Warwick - I Say A Little Prayer
TTITLE15=Peabo Bryson - If Ever You're In My Arms Again
TTITLE16=Spinners - Could It Be I'm Falling In Love
TTITLE17=The Supremes - You Can't Hurry Love
TTITLE18=Mary Wells - My Guy
TTITLE19=New Edition - Mr. Telephone Man
TTITLE20=kevin mahogany - when october goes
EXTD=
EXTT0=
EXTT1=
EXTT2=
EXTT3=
EXTT4=
EXTT5=
EXTT6=
EXTT7=
EXTT8=
EXTT9=
EXTT10=
EXTT11=
EXTT12=
EXTT13=
EXTT14=
EXTT15=
EXTT16=
EXTT17=
EXTT18=
EXTT19=
EXTT20=
PLAYORDER=
